<mxfile host="app.diagrams.net" modified="2024-06-21T01:26:37.243Z" agent="Mozilla/5.0 (Android 14; Mobile; rv:125.0) Gecko/125.0 Firefox/125.0" version="24.4.13" etag="vBke5-P4H5UmsK3ym0sA" type="github">
  <diagram name="第 1 页" id="9a3xMWAyuwKQVxDR4pzX">
    <mxGraphModel>
      <root>
        <mxCell id="0" />
        <mxCell id="1" parent="0" />
      </root>
    </mxGraphModel>
  </diagram>
</mxfile>
